<svg width="24" height="24" viewBox="0 0 24 24" fill="none" xmlns="http://www.w3.org/2000/svg">
<g transform="translate(0, 0.59) scale(0.117)">
<path d="M102.512 0.00128195C102.512 0.00128195 80.3831 -0.0269547 74.0123 20.5013C65.0123 49.5013 96.3136 61.8987 92.5123 69.5013C87.5123 79.5013 26.2238 15.5013 11.5122 38.0013C-5.48775 64.0013 82.5123 73.5013 81.0123 87.0013C79.79 98.0013 1.26078 69.5296 0.0122494 97.0013C-1.14668 122.501 80.1861 95.0013 81.0123 104.501C82.0124 116.001 15.0124 129.176 30.0122 152.001C41.5124 169.501 86.2469 112.922 88.5123 120.001C92.5123 132.501 59.0124 168.801 77.0123 176.501C98.0124 185.486 92.5123 135.501 102.512 123.501C105.429 120.001 102.512 0.00128195 102.512 0.00128195Z" fill="rgb(255, 0, 0)"/>
<path d="M102.512 0.00126559C102.512 0.00126559 124.438 -0.526987 130.809 20.0012C139.809 49.0012 108.507 61.3986 112.309 69.0013C117.309 79.0013 178.597 15.0013 193.309 37.5013C210.309 63.5013 122.309 73.0013 123.809 86.5013C125.031 97.5013 203.56 69.0296 204.809 96.5013C205.968 122.001 124.635 94.5013 123.809 104.001C122.809 115.501 189.809 128.676 174.809 151.501C163.309 169.001 118.574 112.422 116.309 119.501C112.309 132.001 145.809 168.301 127.809 176.001C106.809 184.986 112.512 135.501 102.512 123.501C99.5957 120.001 102.512 0.00126559 102.512 0.00126559Z" fill="rgb(255, 0, 0)"/>
</g>
</svg>
